<svg width="712" height="828" viewBox="0 0 712 828" fill="none" xmlns="http://www.w3.org/2000/svg">
<path d="M3.56443 213C-17.4354 81 60.3979 -12.3333 79.5645 -40H808.564C815.231 143 817.664 546.3 774.064 695.5C719.564 882 535.565 827 472.065 791C408.565 755 280.064 812 205.564 822.5C131.064 833 20.5646 789.5 40.0644 695.5C59.5642 601.5 108.132 565 93.0644 478.5C77.9968 392 24.5643 345 3.56443 213Z" fill="#B5EBA2"/>
<path d="M465.343 216.536H374.423M604.719 185.563L566.329 147.173C556.685 137.529 543.604 132.11 529.965 132.11H410.891C390.75 132.11 374.423 148.437 374.423 168.578V168.578M284.503 78.6577L374.423 168.578M374.423 168.578V278.481M374.423 364.904V278.481M133.137 151.094L245.462 263.418C255.106 273.062 268.187 278.481 281.826 278.481H374.423" stroke="#4A6288" stroke-width="8.03544"/>
<circle cx="603.72" cy="186.062" r="35.9681" fill="white"/>
<path d="M563.953 196.9H569.922C577.18 192.372 580.821 192.377 584.403 196.9H590.846L596.15 205.958L603.922 155.381L610.46 213.236L616.038 196.9H627.236C633.119 192.323 636.885 192.778 638.955 196.9H645" stroke="#70C16F" stroke-width="5.18106" stroke-linecap="round" stroke-linejoin="round"/>
<path d="M500.812 216.036C500.812 235.901 484.708 252.004 464.843 252.004C444.979 252.004 428.875 235.901 428.875 216.036C428.875 196.171 444.979 180.068 464.843 180.068C484.708 180.068 500.812 196.171 500.812 216.036Z" fill="white"/>
<path d="M438.81 181.322C437.212 179.741 430.389 186.787 427.177 190.508C420.033 192.461 420.127 199.228 422.007 201.088C430.193 209.033 448.609 226.365 456.787 232.132C467.01 239.34 484.87 237.713 486.751 235.271C488.631 232.829 491.451 230.039 478.995 224.923C466.54 219.807 467.48 199.693 467.48 195.74C467.48 191.787 462.898 193.414 454.437 195.74C445.977 198.065 440.807 183.299 438.81 181.322Z" fill="white" stroke="#70C16F" stroke-width="3.67187" stroke-linejoin="round"/>
<path d="M487.455 230.039C485.967 231.977 480.64 235.225 471.24 232.713C459.49 229.574 457.727 226.086 454.085 221.9C450.442 217.715 434.227 195.507 424.827 192.019" stroke="#70C16F" stroke-width="2.75391" stroke-linecap="round"/>
<path d="M467.715 202.018L461.84 202.716M467.48 206.204L463.25 207.018M468.655 210.041L464.778 211.087M469.713 213.645L466.893 214.691" stroke="#70C16F" stroke-width="2.75391" stroke-linecap="round"/>
<circle cx="284.004" cy="79.1573" r="35.9681" fill="white"/>
<path d="M305.405 63.3442C315.361 71.7329 312.706 80.1219 302.086 88.5106C298.793 91.1122 284.162 101.76 283.956 102.055C283.959 102.06 283.959 102.062 283.956 102.062C283.953 102.062 283.953 102.06 283.956 102.055C283.752 101.76 269.12 91.1123 265.826 88.5106C255.207 80.1219 252.552 71.7329 262.508 63.3442C273.327 54.228 283.956 70.4424 283.956 70.4424C283.956 70.4424 294.586 54.228 305.405 63.3442Z" fill="white"/>
<path d="M305.405 63.3442L306.812 61.6739V61.6739L305.405 63.3442ZM302.086 88.5106L300.733 86.7967L302.086 88.5106ZM262.508 63.3442L261.1 61.6739V61.6739L262.508 63.3442ZM265.826 88.5106L264.472 90.2245H264.472L265.826 88.5106ZM283.956 70.4424L282.13 71.6398L283.956 74.4261L285.783 71.6398L283.956 70.4424ZM303.998 65.0144C308.634 68.921 309.871 72.3978 309.311 75.5446C308.709 78.9282 305.925 82.6947 300.733 86.7967L303.44 90.2245C308.867 85.9378 312.721 81.3154 313.612 76.3102C314.545 71.0681 312.132 66.1561 306.812 61.6739L303.998 65.0144ZM261.1 61.6739C255.781 66.1561 253.368 71.0681 254.301 76.3102C255.192 81.3154 259.046 85.9378 264.472 90.2245L267.18 86.7967C261.987 82.6947 259.204 78.9282 258.602 75.5446C258.042 72.3978 259.279 68.921 263.915 65.0144L261.1 61.6739ZM283.956 70.4424C285.783 71.6398 285.783 71.6404 285.782 71.6409C285.782 71.641 285.782 71.6415 285.782 71.6417C285.782 71.6421 285.781 71.6422 285.781 71.6421C285.782 71.6419 285.782 71.6407 285.784 71.6386C285.787 71.6344 285.792 71.6264 285.8 71.6149C285.815 71.5918 285.841 71.5544 285.875 71.5038C285.945 71.4028 286.053 71.2496 286.196 71.0543C286.483 70.6631 286.909 70.1062 287.454 69.462C288.553 68.1632 290.093 66.5606 291.908 65.2415C293.735 63.9135 295.708 62.9697 297.695 62.7818C299.598 62.6018 301.717 63.0925 303.998 65.0144L306.812 61.6739C303.684 59.0378 300.416 58.1367 297.284 58.433C294.235 58.7213 291.522 60.1219 289.34 61.7079C287.145 63.3029 285.351 65.1841 284.119 66.6406C283.498 67.3741 283.009 68.0127 282.672 68.4726C282.504 68.7029 282.372 68.8892 282.281 69.0211C282.236 69.0872 282.2 69.1397 282.175 69.1774C282.162 69.1962 282.152 69.2114 282.144 69.2227C282.141 69.2283 282.138 69.233 282.135 69.2367C282.134 69.2386 282.133 69.2402 282.132 69.2415C282.132 69.2422 282.131 69.2431 282.131 69.2434C282.13 69.2442 282.13 69.2449 283.956 70.4424ZM283.956 70.4424C285.783 69.2449 285.783 69.2442 285.782 69.2434C285.782 69.2431 285.781 69.2422 285.781 69.2415C285.78 69.2402 285.779 69.2386 285.778 69.2367C285.775 69.233 285.772 69.2283 285.768 69.2227C285.761 69.2114 285.751 69.1962 285.738 69.1774C285.713 69.1397 285.677 69.0872 285.631 69.0211C285.54 68.8892 285.409 68.7029 285.24 68.4726C284.903 68.0127 284.414 67.3741 283.794 66.6406C282.562 65.1841 280.768 63.3029 278.573 61.7079C276.391 60.1219 273.678 58.7213 270.629 58.433C267.496 58.1367 264.229 59.0378 261.1 61.6739L263.915 65.0144C266.196 63.0925 268.314 62.6018 270.218 62.7818C272.205 62.9697 274.178 63.9135 276.005 65.2415C277.82 66.5606 279.36 68.1632 280.459 69.462C281.004 70.1062 281.43 70.6631 281.717 71.0543C281.86 71.2496 281.967 71.4028 282.037 71.5038C282.072 71.5544 282.098 71.5918 282.113 71.6149C282.121 71.6264 282.126 71.6344 282.129 71.6386C282.13 71.6407 282.131 71.6419 282.131 71.6421C282.131 71.6422 282.131 71.6421 282.131 71.6417C282.131 71.6415 282.131 71.641 282.13 71.6409C282.13 71.6404 282.13 71.6398 283.956 70.4424ZM300.733 86.7967C299.122 88.0691 294.682 91.3516 290.566 94.3908C288.52 95.9015 286.565 97.3445 285.109 98.4279C284.382 98.9691 283.772 99.4254 283.336 99.7576C283.119 99.9225 282.936 100.064 282.798 100.174C282.731 100.227 282.661 100.284 282.598 100.338C282.568 100.363 282.524 100.402 282.476 100.447C282.472 100.451 282.31 100.597 282.163 100.809L285.75 103.302C285.661 103.43 285.579 103.517 285.555 103.543C285.519 103.581 285.491 103.608 285.477 103.621C285.462 103.636 285.45 103.646 285.445 103.651C285.442 103.653 285.44 103.655 285.438 103.656C285.437 103.658 285.436 103.658 285.436 103.658C285.436 103.658 285.437 103.658 285.438 103.657C285.439 103.656 285.44 103.655 285.442 103.653C285.446 103.65 285.452 103.645 285.459 103.639C285.474 103.627 285.493 103.612 285.517 103.592C285.618 103.512 285.773 103.392 285.982 103.233C286.399 102.916 286.992 102.472 287.717 101.932C289.165 100.855 291.111 99.4181 293.161 97.9048C297.235 94.8959 301.758 91.5538 303.44 90.2245L300.733 86.7967ZM282.163 100.809C282.12 100.87 282.045 100.984 281.974 101.138C281.917 101.261 281.771 101.597 281.77 102.054C281.769 102.62 282.002 103.345 282.676 103.832C283.216 104.222 283.759 104.246 283.956 104.246V99.8776C284.152 99.8776 284.694 99.9009 285.234 100.291C285.907 100.777 286.14 101.501 286.138 102.066C286.137 102.523 285.992 102.857 285.936 102.978C285.865 103.131 285.791 103.243 285.75 103.302L282.163 100.809ZM264.472 90.2245C266.155 91.5538 270.678 94.896 274.752 97.9048C276.802 99.4182 278.749 100.855 280.197 101.932C280.921 102.472 281.514 102.916 281.93 103.233C282.14 103.392 282.294 103.512 282.395 103.592C282.42 103.612 282.439 103.627 282.453 103.639C282.461 103.645 282.466 103.649 282.47 103.653C282.474 103.656 282.476 103.658 282.476 103.658C282.476 103.658 282.475 103.657 282.474 103.656C282.472 103.655 282.47 103.653 282.467 103.65C282.462 103.645 282.45 103.635 282.435 103.62C282.421 103.607 282.392 103.579 282.357 103.542C282.332 103.516 282.249 103.427 282.16 103.298L285.753 100.813C285.605 100.599 285.442 100.452 285.438 100.448C285.39 100.403 285.346 100.364 285.315 100.338C285.253 100.284 285.182 100.227 285.115 100.174C284.978 100.065 284.794 99.9226 284.577 99.7577C284.141 99.4254 283.532 98.9691 282.804 98.428C281.348 97.3445 279.393 95.9015 277.347 94.3908C273.231 91.3516 268.791 88.0691 267.18 86.7967L264.472 90.2245ZM282.16 103.298C282.12 103.24 282.046 103.128 281.976 102.976C281.92 102.855 281.776 102.523 281.774 102.07C281.772 101.511 281.999 100.786 282.672 100.296C283.213 99.9016 283.759 99.8776 283.956 99.8776V104.246C284.155 104.246 284.702 104.222 285.244 103.827C285.917 103.336 286.145 102.611 286.143 102.051C286.141 101.596 285.997 101.263 285.94 101.141C285.869 100.987 285.794 100.873 285.752 100.813L282.16 103.298Z" fill="#70C16F"/>
<circle cx="134.136" cy="150.094" r="35.9681" fill="white"/>
<path d="M160.449 165.762C160.826 165.213 160.261 164.523 159.624 164.718C145.131 169.145 129.793 160.985 125.366 146.491C122.838 138.218 124.413 129.669 128.925 123.032C129.602 122.037 128.773 120.653 127.622 121.004C112.093 125.748 103.35 142.182 108.094 157.71C112.837 173.239 129.271 181.982 144.8 177.239C151.425 175.215 156.815 171.063 160.449 165.762Z" fill="#70C16F"/>
<path d="M134.177 135.708H149.883M138.23 143.106H153.937M142.283 150.503H157.99" stroke="#70C16F" stroke-width="3.24267" stroke-linecap="round" stroke-linejoin="round"/>
<mask id="mask0_190_546" style="mask-type:alpha" maskUnits="userSpaceOnUse" x="0" y="-40" width="813" height="868">
<path d="M3.56443 213C-17.4354 81 60.3979 -12.3333 79.5645 -40H808.564C815.231 143 817.664 546.3 774.064 695.5C719.564 882 535.565 827 472.065 791C408.565 755 280.064 812 205.564 822.5C131.064 833 20.5646 789.5 40.0644 695.5C59.5642 601.5 108.132 565 93.0644 478.5C77.9968 392 24.5643 345 3.56443 213Z" fill="white"/>
</mask>
<g mask="url(#mask0_190_546)">
<path fill-rule="evenodd" clip-rule="evenodd" d="M251 328C233.327 328 219 342.327 219 360V950.145C219 967.818 233.327 982.145 251 982.145H499C516.673 982.145 531 967.818 531 950.145V360C531 342.327 516.673 328 499 328H251ZM258.536 335.536C240.863 335.536 226.536 349.863 226.536 367.536V942.609C226.536 960.282 240.863 974.609 258.536 974.609H491.464C509.137 974.609 523.464 960.282 523.464 942.609V367.536C523.464 349.863 509.137 335.536 491.464 335.536H453.921C446.916 335.536 441.238 341.215 441.238 348.219C441.238 355.224 435.559 360.902 428.555 360.902H375H321.445C314.441 360.902 308.762 355.224 308.762 348.219C308.762 341.215 303.084 335.536 296.079 335.536H258.536Z" fill="#2C2C2C"/>
<path d="M226.536 367.536C226.536 349.863 240.863 335.536 258.536 335.536H296.079C303.084 335.536 308.762 341.215 308.762 348.219C308.762 355.224 314.441 360.902 321.445 360.902H375H428.555C435.559 360.902 441.238 355.224 441.238 348.219C441.238 341.215 446.916 335.536 453.921 335.536H491.464C509.137 335.536 523.464 349.863 523.464 367.536V942.609C523.464 960.282 509.137 974.609 491.464 974.609H258.536C240.863 974.609 226.536 960.282 226.536 942.609V367.536Z" fill="white"/>
<mask id="mask1_190_546" style="mask-type:alpha" maskUnits="userSpaceOnUse" x="226" y="335" width="298" height="640">
<path d="M226.536 367.536C226.536 349.863 240.863 335.536 258.536 335.536H296.079C303.084 335.536 308.762 341.215 308.762 348.219C308.762 355.224 314.441 360.902 321.445 360.902H375H428.555C435.559 360.902 441.238 355.224 441.238 348.219C441.238 341.215 446.916 335.536 453.921 335.536H491.464C509.137 335.536 523.464 349.863 523.464 367.536V942.609C523.464 960.282 509.137 974.609 491.464 974.609H258.536C240.863 974.609 226.536 960.282 226.536 942.609V367.536Z" fill="white"/>
</mask>
<g mask="url(#mask1_190_546)">
<circle cx="301.5" cy="446.645" r="52.5" fill="#DCDCDC"/>
<rect x="382" y="416.145" width="125" height="12" rx="6" fill="#EFEFEF"/>
<rect x="382" y="440.145" width="125" height="12" rx="6" fill="#EFEFEF"/>
<rect x="382" y="465.145" width="125" height="12" rx="6" fill="#EFEFEF"/>
<rect x="396" y="666" width="111" height="82" rx="10" fill="#EDFBE8"/>
<rect x="250" y="666" width="111" height="82" rx="10" fill="#EDFBE8"/>
<path d="M306.939 693.681C311.08 687.063 322.723 675.789 334.791 683.731C346.859 691.673 344.552 705.855 334.791 714.428C325.031 723.002 306.939 737 306.939 737C306.939 737 288.969 723.002 279.209 714.428C269.448 705.855 267.141 691.673 279.209 683.731C291.277 675.789 302.798 687.044 306.939 693.662" stroke="#70C16F" stroke-width="10" stroke-linecap="round"/>
<path d="M390 727C407.363 718.139 421.64 698.107 435.145 701.189C448.65 704.27 454.437 732.008 470.643 722.762C486.849 713.516 504.469 688.604 510 680" stroke="#70C16F" stroke-width="10" stroke-linecap="round"/>
<rect x="249" y="518" width="258" height="129" rx="10" fill="#EDFBE8"/>
<rect x="265" y="560.411" width="13.4776" height="68.1605" rx="6.73881" fill="#70C16F"/>
<rect x="290.478" y="576.82" width="13.4776" height="51.7515" rx="6.73881" fill="#70C16F"/>
<rect x="315.955" y="547.789" width="13.4776" height="80.7828" rx="6.73881" fill="#70C16F"/>
<rect x="341.433" y="536.428" width="13.4776" height="92.1429" rx="6.73881" fill="#70C16F"/>
<rect x="366.911" y="551.575" width="13.4776" height="76.9961" rx="6.73881" fill="#70C16F"/>
<rect x="392.388" y="560.411" width="13.4776" height="68.1605" rx="6.73881" fill="#B5EBA2"/>
<rect x="417.866" y="547.789" width="13.4776" height="80.7828" rx="6.73881" fill="#B5EBA2"/>
</g>
</g>
</svg>
