<svg xmlns="http://www.w3.org/2000/svg" version="1.1" xlink="http://www.w3.org/1999/xlink"
     width="100%" height="100%"
     viewBox="4.03000020980835 -55.45000076293945 286.04998779296875 56.05000305175781">
    <g fill="#007700">
        <path d="M25 0L36.79 0L25.97 -19.85L36.64 -38.06L25.3 -38.06L17.09 -23.21L14.85 -23.21L14.85 -55.45L4.03 -55.45L4.03 0L14.85 0L14.85 -14.7L17.09 -14.7Z M52.43 -1.04C54.64 0.05 58.26 0.6 63.28 0.6C68.31 0.6 71.92 0.04 74.11 -1.08C76.3 -2.2 77.7 -4.04 78.32 -6.6C78.94 -9.17 79.26 -13.31 79.26 -19.03C79.26 -24.8 78.94 -28.97 78.32 -31.53C77.7 -34.09 76.3 -35.92 74.11 -37.02C71.92 -38.11 68.31 -38.66 63.28 -38.66C58.26 -38.66 54.64 -38.11 52.43 -37.02C50.21 -35.92 48.81 -34.09 48.21 -31.53C47.61 -28.97 47.31 -24.8 47.31 -19.03C47.31 -13.26 47.61 -9.09 48.21 -6.53C48.81 -3.97 50.21 -2.14 52.43 -1.04ZM66.94 -8.66C66.29 -8.21 65.08 -7.99 63.28 -7.99C61.49 -7.99 60.26 -8.21 59.59 -8.66C58.92 -9.1 58.51 -9.99 58.36 -11.31C58.21 -12.62 58.14 -15.2 58.14 -19.03C58.14 -22.86 58.21 -25.45 58.36 -26.79C58.51 -28.13 58.92 -29.02 59.59 -29.44C60.26 -29.86 61.49 -30.08 63.28 -30.08C65.08 -30.08 66.29 -29.86 66.94 -29.44C67.59 -29.02 68 -28.12 68.17 -26.75C68.35 -25.39 68.43 -22.81 68.43 -19.03C68.43 -15.25 68.35 -12.69 68.17 -11.34C68 -10 67.59 -9.1 66.94 -8.66Z M113.88 -20.37L113.88 0L124.7 0L124.7 -24.4C124.7 -27.89 124.46 -30.62 123.96 -32.61C123.46 -34.6 122.49 -36.11 121.05 -37.13C119.6 -38.15 117.44 -38.66 114.55 -38.66C109.68 -38.66 106.45 -36.94 104.85 -33.51L104.26 -33.51L103.96 -38.06L93.66 -38.06L93.66 0L104.48 0L104.48 -19.7C104.48 -22.59 104.58 -24.66 104.78 -25.93C104.98 -27.2 105.41 -28.1 106.08 -28.62C106.76 -29.14 107.86 -29.4 109.41 -29.4C110.9 -29.4 111.93 -29.24 112.5 -28.92C113.07 -28.6 113.45 -27.85 113.62 -26.68C113.8 -25.51 113.88 -23.41 113.88 -20.37Z M160.45 -20.37L160.45 0L171.27 0L171.27 -24.4C171.27 -27.89 171.02 -30.62 170.53 -32.61C170.03 -34.6 169.06 -36.11 167.62 -37.13C166.17 -38.15 164.01 -38.66 161.12 -38.66C156.25 -38.66 153.01 -36.94 151.42 -33.51L150.82 -33.51L150.53 -38.06L140.23 -38.06L140.23 0L151.05 0L151.05 -19.7C151.05 -22.59 151.15 -24.66 151.35 -25.93C151.55 -27.2 151.98 -28.1 152.65 -28.62C153.32 -29.14 154.43 -29.4 155.97 -29.4C157.47 -29.4 158.5 -29.24 159.07 -28.92C159.64 -28.6 160.02 -27.85 160.19 -26.68C160.36 -25.51 160.45 -23.41 160.45 -20.37Z M216.57 -16.05L216.57 -18.96C216.57 -24.48 216.32 -28.51 215.83 -31.05C215.33 -33.58 214.03 -35.49 211.94 -36.75C209.86 -38.02 206.42 -38.66 201.65 -38.66C196.82 -38.66 193.29 -37.99 191.05 -36.64C188.81 -35.3 187.37 -33.31 186.72 -30.67C186.07 -28.04 185.75 -24.13 185.75 -18.96C185.75 -13.68 186.07 -9.75 186.72 -7.16C187.37 -4.58 188.87 -2.64 191.24 -1.34C193.6 -0.05 197.34 0.6 202.47 0.6C204.76 0.6 207.11 0.49 209.52 0.26C211.93 0.04 213.89 -0.25 215.38 -0.6L215.38 -8.51C210.6 -8.11 207.14 -7.91 205 -7.91C202.17 -7.91 200.19 -8.08 199.07 -8.43C197.95 -8.78 197.24 -9.47 196.94 -10.49C196.65 -11.51 196.5 -13.36 196.5 -16.05ZM198.18 -29.85C198.85 -30.2 199.95 -30.37 201.5 -30.37C202.94 -30.37 203.98 -30.21 204.63 -29.89C205.28 -29.57 205.73 -28.87 205.97 -27.8C206.22 -26.73 206.35 -24.93 206.35 -22.39L196.5 -22.39C196.5 -24.88 196.61 -26.65 196.83 -27.72C197.06 -28.79 197.5 -29.5 198.18 -29.85Z M244.71 0.6C248.34 0.6 251.7 0.2 254.78 -0.6L254.78 -8.51C252.64 -8.16 250.28 -7.99 247.69 -7.99C245.55 -7.99 244.05 -8.23 243.18 -8.73C242.31 -9.23 241.72 -10.2 241.42 -11.64C241.12 -13.08 240.98 -15.55 240.98 -19.03C240.98 -22.46 241.12 -24.9 241.42 -26.34C241.72 -27.79 242.32 -28.77 243.21 -29.29C244.11 -29.81 245.6 -30.08 247.69 -30.08C250.03 -30.08 252.32 -29.9 254.56 -29.55L254.56 -37.54C251.67 -38.28 248.36 -38.66 244.63 -38.66C240.35 -38.66 237.18 -37.95 235.12 -36.53C233.05 -35.11 231.7 -33.06 231.05 -30.37C230.4 -27.69 230.08 -23.91 230.08 -19.03C230.08 -14.1 230.38 -10.31 230.98 -7.65C231.57 -4.99 232.92 -2.95 235.01 -1.53C237.09 -0.11 240.33 0.6 244.71 0.6Z M271.95 0L282.84 0L282.84 -29.48L290.08 -29.48L290.08 -38.06L282.84 -38.06L282.84 -49.11L271.95 -49.11L271.95 -38.06L266.05 -38.06L266.05 -29.48L271.95 -29.48Z"></path>
    </g>
</svg>