<svg xmlns="http://www.w3.org/2000/svg" version="1.1" xlink="http://www.w3.org/1999/xlink"
     width="100%" height="100%"
     viewBox="7.282576560974121 7.28000020980835 85.4354248046875 85.43999481201172">
    <g fill="#70C16F">
        <path d="M40.622 52H66.51c.965 6.36 6.427 11.253 13.021 11.253 7.271 0 13.187-5.945 13.187-13.253S86.802 36.747 79.53 36.747c-6.593 0-12.056 4.893-13.021 11.253h-25.96a16.961 16.961 0 0 0-1.416-4.853l24.682-14.33c2.481 3.104 6.269 4.971 10.297 4.971 2.304 0 4.581-.615 6.585-1.779 6.291-3.653 8.454-11.771 4.823-18.096A13.223 13.223 0 0 0 74.085 7.28a13.13 13.13 0 0 0-6.586 1.779c-5.707 3.313-8.002 10.296-5.671 16.287l-24.803 14.4a16.603 16.603 0 0 0-13.006-6.289c-5.966 0-11.522 3.223-14.501 8.412-4.607 8.023-1.863 18.32 6.116 22.954a16.651 16.651 0 0 0 8.35 2.256c5.258 0 10.197-2.507 13.335-6.654l24.509 14.229c-2.33 5.991-.036 12.974 5.671 16.287a13.128 13.128 0 0 0 6.585 1.779h.001c4.704 0 9.087-2.542 11.436-6.634 3.632-6.326 1.468-14.443-4.823-18.096a13.132 13.132 0 0 0-6.586-1.779c-4.028 0-7.815 1.868-10.297 4.971L39.33 56.967A16.714 16.714 0 0 0 40.622 52zM79.53 40.747c5.065 0 9.187 4.151 9.187 9.253s-4.121 9.253-9.187 9.253c-5.066 0-9.188-4.151-9.188-9.253s4.122-9.253 9.188-9.253zM69.507 12.518a9.136 9.136 0 0 1 4.578-1.238 9.216 9.216 0 0 1 7.967 4.625C84.59 20.327 83.082 26 78.69 28.551a9.135 9.135 0 0 1-4.577 1.238 9.216 9.216 0 0 1-7.968-4.625c-2.539-4.423-1.032-10.095 3.362-12.646zM35.018 56.675c-2.268 3.95-6.495 6.404-11.033 6.404-2.216 0-4.409-.593-6.342-1.715-6.081-3.531-8.169-11.383-4.655-17.503 2.268-3.95 6.495-6.404 11.032-6.404 2.216 0 4.409.593 6.342 1.715 6.081 3.53 8.169 11.382 4.656 17.503zm39.093 13.536c1.6 0 3.183.428 4.578 1.238 4.393 2.55 5.9 8.223 3.362 12.646a9.214 9.214 0 0 1-7.967 4.625 9.13 9.13 0 0 1-4.578-1.238c-4.393-2.551-5.901-8.224-3.362-12.646a9.218 9.218 0 0 1 7.967-4.625z"></path>
    </g>
</svg>